<svg width="32" height="33" viewBox="0 0 32 33" fill="none" xmlns="http://www.w3.org/2000/svg">
<path d="M5.33329 27.1666C4.59996 27.1666 3.97196 26.9053 3.44929 26.3826C2.92663 25.8599 2.66574 25.2324 2.66663 24.4999V8.49992C2.66663 7.76659 2.92796 7.13859 3.45063 6.61592C3.97329 6.09325 4.60085 5.83237 5.33329 5.83325H26.6666C27.4 5.83325 28.028 6.09459 28.5506 6.61725C29.0733 7.13992 29.3342 7.76748 29.3333 8.49992V24.4999C29.3333 25.2333 29.072 25.8613 28.5493 26.3839C28.0266 26.9066 27.3991 27.1675 26.6666 27.1666H5.33329ZM16 17.8333L5.33329 11.1666V24.4999H26.6666V11.1666L16 17.8333ZM16 15.1666L26.6666 8.49992H5.33329L16 15.1666ZM5.33329 11.1666V8.49992V24.4999V11.1666Z" fill="#F8F5F4"/>
</svg>
