<svg width="32" height="32" viewBox="0 0 32 32" fill="none" xmlns="http://www.w3.org/2000/svg">
<path d="M16 8.66675C16.884 8.66675 17.7319 9.01794 18.357 9.64306C18.9821 10.2682 19.3333 11.116 19.3333 12.0001C19.3333 12.4378 19.2471 12.8713 19.0796 13.2757C18.912 13.6801 18.6665 14.0476 18.357 14.3571C18.0475 14.6666 17.68 14.9122 17.2756 15.0797C16.8712 15.2472 16.4377 15.3334 16 15.3334C15.1159 15.3334 14.2681 14.9822 13.6429 14.3571C13.0178 13.732 12.6666 12.8841 12.6666 12.0001C12.6666 11.116 13.0178 10.2682 13.6429 9.64306C14.2681 9.01794 15.1159 8.66675 16 8.66675ZM16 2.66675C18.4753 2.66675 20.8493 3.65008 22.5996 5.40042C24.35 7.15076 25.3333 9.52473 25.3333 12.0001C25.3333 19.0001 16 29.3334 16 29.3334C16 29.3334 6.66663 19.0001 6.66663 12.0001C6.66663 9.52473 7.64996 7.15076 9.4003 5.40042C11.1506 3.65008 13.5246 2.66675 16 2.66675ZM16 5.33341C14.2318 5.33341 12.5362 6.03579 11.2859 7.28604C10.0357 8.53628 9.33329 10.232 9.33329 12.0001C9.33329 13.3334 9.33329 16.0001 16 24.9467C22.6666 16.0001 22.6666 13.3334 22.6666 12.0001C22.6666 10.232 21.9642 8.53628 20.714 7.28604C19.4638 6.03579 17.7681 5.33341 16 5.33341Z" fill="#F8F5F4"/>
</svg>
